<mxfile host="app.diagrams.net" modified="2024-07-16T18:50:12.582Z" agent="Mozilla/5.0 (Windows NT 10.0; Win64; x64) AppleWebKit/537.36 (KHTML, like Gecko) Chrome/126.0.0.0 Safari/537.36 Edg/126.0.0.0" etag="R9bWkrkNuKmvsVeP3Zxi" version="24.6.4" type="github">
  <diagram name="Page-1" id="e7e014a7-5840-1c2e-5031-d8a46d1fe8dd">
    <mxGraphModel dx="919" dy="655" grid="0" gridSize="10" guides="1" tooltips="1" connect="1" arrows="1" fold="1" page="0" pageScale="1" pageWidth="1169" pageHeight="826" background="none" math="0" shadow="0">
      <root>
        <mxCell id="0" />
        <mxCell id="1" parent="0" />
        <mxCell id="pgPd4hov-5LyuJY6HFhG-45" value="" style="edgeStyle=orthogonalEdgeStyle;rounded=0;orthogonalLoop=1;jettySize=auto;html=1;" edge="1" parent="1" source="pgPd4hov-5LyuJY6HFhG-41" target="pgPd4hov-5LyuJY6HFhG-44">
          <mxGeometry relative="1" as="geometry" />
        </mxCell>
        <mxCell id="pgPd4hov-5LyuJY6HFhG-41" value="开始" style="rounded=1;whiteSpace=wrap;html=1;fillColor=#f5f5f5;fontColor=#333333;strokeColor=#666666;" vertex="1" parent="1">
          <mxGeometry x="360" y="90" width="120" height="60" as="geometry" />
        </mxCell>
        <mxCell id="pgPd4hov-5LyuJY6HFhG-54" value="" style="edgeStyle=orthogonalEdgeStyle;rounded=0;orthogonalLoop=1;jettySize=auto;html=1;" edge="1" parent="1" source="pgPd4hov-5LyuJY6HFhG-44" target="pgPd4hov-5LyuJY6HFhG-53">
          <mxGeometry relative="1" as="geometry" />
        </mxCell>
        <mxCell id="pgPd4hov-5LyuJY6HFhG-44" value="监听" style="rounded=0;whiteSpace=wrap;html=1;fillColor=#fff2cc;strokeColor=#d6b656;" vertex="1" parent="1">
          <mxGeometry x="360" y="250" width="120" height="60" as="geometry" />
        </mxCell>
        <mxCell id="pgPd4hov-5LyuJY6HFhG-47" value="" style="edgeStyle=elbowEdgeStyle;elbow=vertical;endArrow=classic;html=1;curved=0;rounded=0;endSize=8;startSize=8;entryX=0.5;entryY=0;entryDx=0;entryDy=0;" edge="1" parent="1" target="pgPd4hov-5LyuJY6HFhG-48">
          <mxGeometry width="50" height="50" relative="1" as="geometry">
            <mxPoint x="420" y="160" as="sourcePoint" />
            <mxPoint x="550" y="220" as="targetPoint" />
            <Array as="points">
              <mxPoint x="480" y="200" />
            </Array>
          </mxGeometry>
        </mxCell>
        <mxCell id="pgPd4hov-5LyuJY6HFhG-61" value="" style="edgeStyle=orthogonalEdgeStyle;rounded=0;orthogonalLoop=1;jettySize=auto;html=1;" edge="1" parent="1" source="pgPd4hov-5LyuJY6HFhG-48" target="pgPd4hov-5LyuJY6HFhG-60">
          <mxGeometry relative="1" as="geometry" />
        </mxCell>
        <mxCell id="pgPd4hov-5LyuJY6HFhG-48" value="查看日志信息" style="rounded=0;whiteSpace=wrap;html=1;fillColor=#f8cecc;strokeColor=#b85450;" vertex="1" parent="1">
          <mxGeometry x="690" y="250" width="120" height="60" as="geometry" />
        </mxCell>
        <mxCell id="pgPd4hov-5LyuJY6HFhG-49" value="" style="edgeStyle=elbowEdgeStyle;elbow=vertical;endArrow=classic;html=1;curved=0;rounded=0;endSize=8;startSize=8;exitX=0.5;exitY=1;exitDx=0;exitDy=0;entryX=0.5;entryY=0;entryDx=0;entryDy=0;" edge="1" parent="1" source="pgPd4hov-5LyuJY6HFhG-41" target="pgPd4hov-5LyuJY6HFhG-50">
          <mxGeometry width="50" height="50" relative="1" as="geometry">
            <mxPoint x="420" y="245" as="sourcePoint" />
            <mxPoint x="160" y="250" as="targetPoint" />
          </mxGeometry>
        </mxCell>
        <mxCell id="pgPd4hov-5LyuJY6HFhG-50" value="打印帮助界面" style="rounded=0;whiteSpace=wrap;html=1;fillColor=#ffe6cc;strokeColor=#d79b00;" vertex="1" parent="1">
          <mxGeometry x="130" y="250" width="120" height="60" as="geometry" />
        </mxCell>
        <mxCell id="pgPd4hov-5LyuJY6HFhG-56" value="" style="edgeStyle=orthogonalEdgeStyle;rounded=0;orthogonalLoop=1;jettySize=auto;html=1;" edge="1" parent="1" source="pgPd4hov-5LyuJY6HFhG-53" target="pgPd4hov-5LyuJY6HFhG-55">
          <mxGeometry relative="1" as="geometry" />
        </mxCell>
        <mxCell id="pgPd4hov-5LyuJY6HFhG-53" value="进入监控目录" style="rhombus;whiteSpace=wrap;html=1;rounded=0;fillColor=#fff2cc;gradientColor=#ffd966;strokeColor=#d6b656;" vertex="1" parent="1">
          <mxGeometry x="360" y="360" width="120" height="80" as="geometry" />
        </mxCell>
        <mxCell id="pgPd4hov-5LyuJY6HFhG-55" value="选择操作，进行监控" style="whiteSpace=wrap;html=1;rounded=0;fillColor=#fff2cc;strokeColor=#d6b656;" vertex="1" parent="1">
          <mxGeometry x="360" y="480" width="120" height="60" as="geometry" />
        </mxCell>
        <mxCell id="pgPd4hov-5LyuJY6HFhG-57" value="" style="edgeStyle=elbowEdgeStyle;elbow=horizontal;endArrow=classic;html=1;curved=0;rounded=0;endSize=8;startSize=8;exitX=0;exitY=0.5;exitDx=0;exitDy=0;entryX=0;entryY=0.5;entryDx=0;entryDy=0;" edge="1" parent="1" source="pgPd4hov-5LyuJY6HFhG-55" target="pgPd4hov-5LyuJY6HFhG-53">
          <mxGeometry width="50" height="50" relative="1" as="geometry">
            <mxPoint x="510" y="510" as="sourcePoint" />
            <mxPoint x="560" y="460" as="targetPoint" />
            <Array as="points">
              <mxPoint x="320" y="450" />
            </Array>
          </mxGeometry>
        </mxCell>
        <mxCell id="pgPd4hov-5LyuJY6HFhG-58" value="修改监控目录" style="text;html=1;align=center;verticalAlign=middle;whiteSpace=wrap;rounded=0;" vertex="1" parent="1">
          <mxGeometry x="240" y="430" width="80" height="30" as="geometry" />
        </mxCell>
        <mxCell id="pgPd4hov-5LyuJY6HFhG-63" value="" style="edgeStyle=orthogonalEdgeStyle;rounded=0;orthogonalLoop=1;jettySize=auto;html=1;" edge="1" parent="1" source="pgPd4hov-5LyuJY6HFhG-60" target="pgPd4hov-5LyuJY6HFhG-62">
          <mxGeometry relative="1" as="geometry" />
        </mxCell>
        <mxCell id="pgPd4hov-5LyuJY6HFhG-66" value="" style="edgeStyle=orthogonalEdgeStyle;rounded=0;orthogonalLoop=1;jettySize=auto;html=1;" edge="1" parent="1" source="pgPd4hov-5LyuJY6HFhG-60" target="pgPd4hov-5LyuJY6HFhG-62">
          <mxGeometry relative="1" as="geometry" />
        </mxCell>
        <mxCell id="pgPd4hov-5LyuJY6HFhG-60" value="进入日志路径" style="rhombus;whiteSpace=wrap;html=1;rounded=0;fillColor=#f8cecc;gradientColor=#ea6b66;strokeColor=#b85450;" vertex="1" parent="1">
          <mxGeometry x="690" y="360" width="120" height="80" as="geometry" />
        </mxCell>
        <mxCell id="pgPd4hov-5LyuJY6HFhG-62" value="sort" style="whiteSpace=wrap;html=1;rounded=0;fillColor=#f8cecc;strokeColor=#b85450;" vertex="1" parent="1">
          <mxGeometry x="690" y="480" width="120" height="60" as="geometry" />
        </mxCell>
        <mxCell id="pgPd4hov-5LyuJY6HFhG-64" value="" style="edgeStyle=elbowEdgeStyle;elbow=vertical;endArrow=classic;html=1;curved=0;rounded=0;endSize=8;startSize=8;exitX=0.5;exitY=1;exitDx=0;exitDy=0;entryX=0.5;entryY=0;entryDx=0;entryDy=0;" edge="1" parent="1" source="pgPd4hov-5LyuJY6HFhG-60" target="pgPd4hov-5LyuJY6HFhG-65">
          <mxGeometry width="50" height="50" relative="1" as="geometry">
            <mxPoint x="530" y="370" as="sourcePoint" />
            <mxPoint x="630" y="480" as="targetPoint" />
          </mxGeometry>
        </mxCell>
        <mxCell id="pgPd4hov-5LyuJY6HFhG-65" value="query" style="rounded=0;whiteSpace=wrap;html=1;fillColor=#f8cecc;strokeColor=#b85450;" vertex="1" parent="1">
          <mxGeometry x="530" y="480" width="120" height="60" as="geometry" />
        </mxCell>
        <mxCell id="pgPd4hov-5LyuJY6HFhG-67" value="merge" style="rounded=0;whiteSpace=wrap;html=1;fillColor=#f8cecc;strokeColor=#b85450;" vertex="1" parent="1">
          <mxGeometry x="850" y="480" width="120" height="60" as="geometry" />
        </mxCell>
        <mxCell id="pgPd4hov-5LyuJY6HFhG-68" value="" style="edgeStyle=elbowEdgeStyle;elbow=vertical;endArrow=classic;html=1;curved=0;rounded=0;endSize=8;startSize=8;exitX=0.5;exitY=1;exitDx=0;exitDy=0;entryX=0.5;entryY=0;entryDx=0;entryDy=0;" edge="1" parent="1" source="pgPd4hov-5LyuJY6HFhG-60" target="pgPd4hov-5LyuJY6HFhG-67">
          <mxGeometry width="50" height="50" relative="1" as="geometry">
            <mxPoint x="860" y="450" as="sourcePoint" />
            <mxPoint x="870" y="420" as="targetPoint" />
          </mxGeometry>
        </mxCell>
        <mxCell id="pgPd4hov-5LyuJY6HFhG-69" value="" style="html=1;verticalAlign=bottom;endArrow=open;dashed=1;endSize=8;curved=0;rounded=0;exitX=0.5;exitY=1;exitDx=0;exitDy=0;entryX=0.051;entryY=-0.033;entryDx=0;entryDy=0;entryPerimeter=0;" edge="1" parent="1" source="pgPd4hov-5LyuJY6HFhG-50" target="pgPd4hov-5LyuJY6HFhG-71">
          <mxGeometry relative="1" as="geometry">
            <mxPoint x="590" y="440" as="sourcePoint" />
            <mxPoint x="570" y="440" as="targetPoint" />
          </mxGeometry>
        </mxCell>
        <mxCell id="pgPd4hov-5LyuJY6HFhG-71" value="结束" style="rounded=1;whiteSpace=wrap;html=1;fillColor=#f5f5f5;fontColor=#333333;strokeColor=#666666;" vertex="1" parent="1">
          <mxGeometry x="150" y="610" width="810" height="60" as="geometry" />
        </mxCell>
        <mxCell id="pgPd4hov-5LyuJY6HFhG-72" value="" style="html=1;verticalAlign=bottom;endArrow=open;dashed=1;endSize=8;curved=0;rounded=0;exitX=0.5;exitY=1;exitDx=0;exitDy=0;entryX=0.335;entryY=0.008;entryDx=0;entryDy=0;entryPerimeter=0;" edge="1" parent="1" source="pgPd4hov-5LyuJY6HFhG-55" target="pgPd4hov-5LyuJY6HFhG-71">
          <mxGeometry relative="1" as="geometry">
            <mxPoint x="200" y="320" as="sourcePoint" />
            <mxPoint x="199" y="618" as="targetPoint" />
          </mxGeometry>
        </mxCell>
        <mxCell id="pgPd4hov-5LyuJY6HFhG-73" value="" style="html=1;verticalAlign=bottom;endArrow=open;dashed=1;endSize=8;curved=0;rounded=0;exitX=0.5;exitY=1;exitDx=0;exitDy=0;entryX=0.351;entryY=0;entryDx=0;entryDy=0;entryPerimeter=0;" edge="1" parent="1">
          <mxGeometry relative="1" as="geometry">
            <mxPoint x="589.5" y="540" as="sourcePoint" />
            <mxPoint x="589.5" y="610" as="targetPoint" />
          </mxGeometry>
        </mxCell>
        <mxCell id="pgPd4hov-5LyuJY6HFhG-74" value="" style="html=1;verticalAlign=bottom;endArrow=open;dashed=1;endSize=8;curved=0;rounded=0;exitX=0.5;exitY=1;exitDx=0;exitDy=0;entryX=0.351;entryY=0;entryDx=0;entryDy=0;entryPerimeter=0;" edge="1" parent="1">
          <mxGeometry relative="1" as="geometry">
            <mxPoint x="749.5" y="540" as="sourcePoint" />
            <mxPoint x="749.5" y="610" as="targetPoint" />
          </mxGeometry>
        </mxCell>
        <mxCell id="pgPd4hov-5LyuJY6HFhG-75" value="" style="html=1;verticalAlign=bottom;endArrow=open;dashed=1;endSize=8;curved=0;rounded=0;exitX=0.5;exitY=1;exitDx=0;exitDy=0;entryX=0.351;entryY=0;entryDx=0;entryDy=0;entryPerimeter=0;" edge="1" parent="1">
          <mxGeometry relative="1" as="geometry">
            <mxPoint x="909.5" y="540" as="sourcePoint" />
            <mxPoint x="909.5" y="610" as="targetPoint" />
          </mxGeometry>
        </mxCell>
      </root>
    </mxGraphModel>
  </diagram>
</mxfile>
